<svg xmlns="http://www.w3.org/2000/svg" viewBox="0 0 100 100">
  <defs>
    <!-- 霓虹发光滤镜 -->
    <filter id="singularity-glow" x="-50%" y="-50%" width="200%" height="200%">
      <feGaussianBlur stdDeviation="2.5" result="blur"/>
      <feComposite in="SourceGraphic" in2="blur" operator="over"/>
    </filter>
    <!-- 渐变定义 -->
    <linearGradient id="matrix-grad" x1="0%" y1="0%" x2="100%" y2="100%">
      <stop offset="0%" style="stop-color:#4CAF50;stop-opacity:1" />
      <stop offset="100%" style="stop-color:#FFEB3B;stop-opacity:1" />
    </linearGradient>
  </defs>

  <!-- 深邃背景 -->
  <rect width="100" height="100" rx="18" fill="#0a0b14"/>
  
  <!-- 1. 拓扑流形网格 (低透明度背景) -->
  <path d="M50 10 L90 30 V70 L50 90 L10 70 V30 Z" fill="none" stroke="#4CAF50" stroke-width="0.5" opacity="0.2"/>
  <circle cx="50" cy="50" r="35" fill="none" stroke="#4CAF50" stroke-width="0.5" stroke-dasharray="2 2" opacity="0.1"/>

  <!-- 2. 逆向坍缩路径 (从四周汇聚向中心的逻辑链) -->
  <g opacity="0.4">
    <line x1="10" y1="30" x2="50" y2="50" stroke="#4CAF50" stroke-width="1"/>
    <line x1="90" y1="30" x2="50" y2="50" stroke="#4CAF50" stroke-width="1"/>
    <line x1="50" y1="90" x2="50" y2="50" stroke="#4CAF50" stroke-width="1"/>
    <line x1="10" y1="70" x2="50" y2="50" stroke="#4CAF50" stroke-width="0.5"/>
    <line x1="90" y1="70" x2="50" y2="50" stroke="#4CAF50" stroke-width="0.5"/>
    <line x1="50" y1="10" x2="50" y2="50" stroke="#4CAF50" stroke-width="0.5"/>
  </g>

  <!-- 3. 核心：坍缩中的 Delta 矩阵 (三重嵌套三角形) -->
  <!-- 外层：逻辑空间 -->
  <path d="M50 25 L75 70 H25 Z" fill="none" stroke="#4CAF50" stroke-width="3" stroke-linejoin="round" opacity="0.6"/>
  <!-- 中层：因果律重构 -->
  <path d="M50 35 L65 65 H35 Z" fill="none" stroke="#4CAF50" stroke-width="2" stroke-linejoin="round" opacity="0.8">
    <animate attributeName="stroke-dasharray" values="0,100;100,0" dur="4s" repeatCount="indefinite" />
  </path>
  <!-- 内层：效能奇点 (黄色高亮) -->
  <path d="M50 42 L58 58 H42 Z" fill="#FFEB3B" filter="url(#singularity-glow)">
    <animate attributeName="opacity" values="1;0.5;1" dur="2s" repeatCount="indefinite" />
  </path>

  <!-- 4. 逆向溯源环 (底部的因果律闭环) -->
  <path d="M30 75 Q50 85 70 75" fill="none" stroke="#FFEB3B" stroke-width="3" stroke-linecap="round" filter="url(#singularity-glow)"/>
  <path d="M27 72 L30 78 L34 74 Z" fill="#FFEB3B"/>

  <!-- 5. 逻辑节点 (散落在流形上的数据点) -->
  <circle cx="10" cy="30" r="1.5" fill="#4CAF50"/>
  <circle cx="90" cy="30" r="1.5" fill="#4CAF50"/>
  <circle cx="50" cy="90" r="1.5" fill="#4CAF50"/>
  <circle cx="50" cy="50" r="2.5" fill="#FFEB3B" filter="url(#singularity-glow)"/>
</svg>